#!OML:ASF F:\VICON\USERDATA\INSTALL\rory3\rory3.ASF
:FULLY-SPECIFIED
:DEGREES
772
root 8.74195 14.5534 -10.9488 -364.651 -62.5636 360.77
lowerback 19.7609 -0.599584 -10.6958
upperback -0.939767 -2.79369 4.98917
thorax -11.4692 -0.471335 12.7583
lowerneck -10.6759 -9.56954 -7.23674
upperneck 19.7066 -12.6826 2.62128
head 8.52629 -6.35512 0.650456
rclavicle 2.57426e-014 1.59028e-014
rhumerus 27.6611 -6.07978 -53.1569
rradius 53.738
rwrist -28.127
rhand -12.561 16.1875
rfingers 7.12502
rthumb 13.5163 -13.3539
lclavicle 2.57426e-014 1.59028e-014
lhumerus 14.2537 -25.7884 58.4419
lradius 79.774
lwrist 46.601
lhand -5.27025 24.6752
lfingers 7.12502
lthumb 20.5337 53.6093
rfemur -33.5003 6.32806 -5.38363
rtibia 29.7495
rfoot -31.0079 -22.3623
rtoes 46.2087
lfemur -28.4301 38.4577 -35.042
ltibia 60.6603
lfoot -40.8349 13.8183
ltoes 20.6677
773
root 8.74069 14.5492 -10.9314 -365.715 -62.826 361.772
lowerback 19.6202 -0.540049 -10.9609
upperback -0.844288 -2.77878 4.81106
thorax -11.2803 -0.476963 12.6797
lowerneck -10.8105 -9.64392 -7.36417
upperneck 19.8776 -12.789 2.73336
head 8.63116 -6.40047 0.680661
rclavicle -2.46493e-014 -1.59028e-014
rhumerus 28.0875 -5.90414 -53.8075
rradius 53.688
rwrist -27.8289
rhand -12.1451 16.3151
rfingers 7.12502
rthumb 13.9172 -13.1991
lclavicle -2.46493e-014 -1.59028e-014
lhumerus 14.4196 -26.6161 58.1822
lradius 80.4858
lwrist 46.9935
lhand -5.6727 24.918
lfingers 7.12502
lthumb 20.147 53.8933
rfemur -33.4907 6.46653 -5.87402
rtibia 29.8339
rfoot -31.1434 -21.5199
rtoes 46.6709
lfemur -28.0208 38.7432 -35.4525
ltibia 60.5023
lfoot -41.0182 13.8857
ltoes 20.7227
774
root 8.75845 14.5439 -10.9375 -365.155 -62.9738 361.148
lowerback 19.8266 -0.630377 -10.8261
upperback -0.890397 -2.88006 4.91445
thorax -11.4219 -0.514026 12.7717
lowerneck -10.9593 -9.58644 -7.11201
upperneck 19.9514 -12.7259 2.61714
head 8.65335 -6.36183 0.603953
rclavicle -1.87355e-014 1.90833e-014
rhumerus 28.4251 -5.25638 -54.2158
rradius 53.9684
rwrist -27.8536
rhand -11.8483 16.2665
rfingers 7.12502
rthumb 14.2031 -13.2279
lclavicle -1.87355e-014 1.90833e-014
lhumerus 14.2732 -27.2388 58.0415
lradius 81.072
lwrist 47.1253
lhand -4.66528 24.32
lfingers 7.12502
lthumb 21.115 53.1902
rfemur -33.6233 6.88626 -5.51229
rtibia 29.7213
rfoot -30.3367 -22.8217
rtoes 45.0445
lfemur -28.3009 38.6793 -35.2246
ltibia 60.6902
lfoot -41.0259 14.0159
ltoes 20.747
775
root 8.76629 14.5382 -10.9282 -365.38 -62.9992 361.481
lowerback 19.6527 -0.641652 -10.6671
upperback -0.862891 -2.85918 4.71153
thorax -11.313 -0.533667 12.4068
lowerneck -11.1658 -9.7766 -7.11534
upperneck 20.1734 -13.0516 2.884
head 8.80239 -6.4835 0.632919
rclavicle -2.52953e-014 2.8625e-014
rhumerus 28.5017 -5.31588 -54.7514
rradius 54.2604
rwrist -27.6871
rhand -11.8124 16.3324
rfingers 7.12502
rthumb 14.2378 -13.1596
lclavicle -2.52953e-014 2.8625e-014
lhumerus 14.8057 -28.2459 57.86
lradius 81.5726
lwrist 47.4643
lhand -5.37943 25.1212
lfingers 7.12502
lthumb 20.4288 54.0666
rfemur -33.8323 6.46489 -5.51249
rtibia 29.8205
rfoot -29.8396 -23.0193
rtoes 44.6563
lfemur -28.4128 38.4608 -35.5439
ltibia 60.6673
lfoot -41.2605 13.9629
ltoes 21.1454
776
root 8.76493 14.5224 -10.9296 -366.102 -63.2025 362.352
lowerback 19.463 -0.579032 -10.999
upperback -0.9145 -2.84303 4.62583
thorax -11.2606 -0.509767 12.4868
lowerneck -11.0864 -9.98968 -7.28299
upperneck 20.21 -13.3222 2.85514
head 8.82565 -6.62689 0.616287
rclavicle 3.52843e-014 -1.03368e-014
rhumerus 28.6864 -5.01504 -55.1034
rradius 54.4531
rwrist -27.4409
rhand -11.8587 16.4819
rfingers 7.12502
rthumb 14.1931 -13.0133
lclavicle 3.52843e-014 -1.03368e-014
lhumerus 14.7193 -28.7297 58.0919
lradius 82.0275
lwrist 47.6557
lhand -4.90527 24.8028
lfingers 7.12502
lthumb 20.8844 53.6986
rfemur -34.3099 5.95189 -5.64268
rtibia 30.1596
rfoot -29.7124 -22.458
rtoes 45.7679
lfemur -28.5508 38.6004 -36.0433
ltibia 60.6805
lfoot -41.1687 14.3222
ltoes 21.0119
777
root 8.76308 14.5111 -10.9168 -366.414 -63.493 362.684
lowerback 19.2265 -0.632017 -11.0133
upperback -0.885893 -2.90283 4.5134
thorax -11.0797 -0.560009 12.3528
lowerneck -10.823 -9.72052 -6.90758
upperneck 19.8524 -12.9893 2.75227
head 8.6031 -6.46193 0.594312
rclavicle -9.63609e-014 3.81667e-014
rhumerus 28.9296 -4.50094 -55.6459
rradius 54.5875
rwrist -27.5348
rhand -11.6936 16.6698
rfingers 7.12502
rthumb 14.3523 -12.8141
lclavicle -9.63609e-014 3.81667e-014
lhumerus 14.6651 -28.9183 58.2581
lradius 82.2309
lwrist 47.4951
lhand -4.26491 24.853
lfingers 7.12502
lthumb 21.4996 53.6798
rfemur -34.5085 6.19681 -5.69323
rtibia 30.1152
rfoot -29.5555 -22.8401
rtoes 44.0652
lfemur -28.5098 38.8394 -36.2036
ltibia 60.622
lfoot -41.3828 14.1086
ltoes 20.8018
778
root 8.76873 14.5187 -10.901 -366.665 -63.963 362.705
lowerback 19.2037 -0.534913 -10.884
upperback -0.778148 -2.74706 4.43167
thorax -10.9962 -0.510781 12.1278
lowerneck -10.518 -9.65303 -6.48374
upperneck 19.4356 -12.9313 2.59076
head 8.362 -6.42854 0.514717
rclavicle 3.00662e-014 6.04305e-014
rhumerus 29.1642 -4.29825 -56.2383
rradius 54.7754
rwrist -27.8979
rhand -11.8486 16.6608
rfingers 7.12502
rthumb 14.2029 -12.8336
lclavicle 3.00662e-014 6.04305e-014
lhumerus 14.6521 -29.7478 58.4246
lradius 83.1238
lwrist 48.707
lhand -6.27614 25.3988
lfingers 7.12502
lthumb 19.5669 54.4342
rfemur -34.2534 6.59 -5.54865
rtibia 29.5792
rfoot -29.4084 -22.5692
rtoes 44.8794
lfemur -28.0845 39.2268 -36.0152
ltibia 60.385
lfoot -41.4857 14.2646
ltoes 19.6656
779
root 8.78455 14.5185 -10.908 -366.276 -64.0537 362.27
lowerback 19.3147 -0.563521 -10.6762
upperback -0.783481 -2.74763 4.4475
thorax -11.0726 -0.516271 12.0315
lowerneck -10.6391 -9.70978 -6.49051
upperneck 19.438 -13.0221 2.69429
head 8.39662 -6.45881 0.531428
rclavicle 2.5345e-015 -4.21423e-014
rhumerus 29.3036 -3.98415 -56.6705
rradius 55.0465
rwrist -27.7419
rhand -11.8773 16.6128
rfingers 7.12502
rthumb 14.1752 -12.8836
lclavicle 2.5345e-015 -4.21423e-014
lhumerus 14.7689 -30.2807 58.6066
lradius 83.2316
lwrist 48.1116
lhand -3.40986 24.8286
lfingers 7.12502
lthumb 22.3206 53.5593
rfemur -34.2011 6.72716 -5.21692
rtibia 29.2428
rfoot -29.0276 -23.429
rtoes 43.9956
lfemur -28.1873 39.4051 -35.7739
ltibia 60.4614
lfoot -41.4001 14.0756
ltoes 19.8507
780
root 8.78907 14.5105 -10.912 -366.632 -64.145 362.659
lowerback 19.3415 -0.521612 -10.7629
upperback -0.797854 -2.72467 4.34728
thorax -11.1125 -0.499092 11.961
lowerneck -10.7898 -9.77387 -6.24891
upperneck 19.4959 -13.1083 2.50523
head 8.41616 -6.49726 0.415049
rclavicle -5.95857e-014 5.08889e-014
rhumerus 29.3267 -3.62184 -56.8375
rradius 55.2487
rwrist -27.739
rhand -12.0445 16.5942
rfingers 7.12502
rthumb 14.0141 -12.9134
lclavicle -5.95857e-014 5.08889e-014
lhumerus 14.9653 -30.8524 58.796
lradius 83.7859
lwrist 48.4864
lhand -1.2639 25.1086
lfingers 7.12502
lthumb 24.3792 53.5777
rfemur -34.4722 7.1593 -5.46421
rtibia 29.5024
rfoot -29.5447 -23.3777
rtoes 44.4163
lfemur -28.2226 39.5538 -35.9429
ltibia 60.5146
lfoot -41.4677 14.0387
ltoes 19.5686
781
root 8.78735 14.4956 -10.8983 -366.648 -64.2518 362.607
lowerback 19.2854 -0.658384 -10.5649
upperback -0.795724 -2.85787 4.32912
thorax -11.0488 -0.581336 11.8498
lowerneck -10.7623 -9.68584 -6.11402
upperneck 19.4181 -12.9769 2.3617
head 8.35901 -6.4412 0.368818
rclavicle 5.66039e-014 -5.24792e-014
rhumerus 29.5915 -3.01852 -57.2959
rradius 55.3778
rwrist -27.885
rhand -11.503 16.6068
rfingers 7.12502
rthumb 14.5359 -12.864
lclavicle 5.66039e-014 -5.24792e-014
lhumerus 14.5888 -30.6222 59.7667
lradius 83.2922
lwrist 47.62
lhand -0.559528 24.563
lfingers 7.12502
lthumb 25.0543 52.9396
rfemur -34.5921 7.47934 -5.58422
rtibia 29.7039
rfoot -30.8534 -22.2984
rtoes 45.4963
lfemur -28.1497 39.8302 -35.8836
ltibia 60.6584
lfoot -41.5325 13.9311
ltoes 18.942
